<mxfile host="app.diagrams.net" modified="2023-05-09T03:21:10.062Z" agent="Mozilla/5.0 (Macintosh; Intel Mac OS X 10_15_7) AppleWebKit/605.1.15 (KHTML, like Gecko) Version/15.6.1 Safari/605.1.15" etag="NW1i594FiWDYhvuAOBfl" version="21.2.6" type="device">
  <diagram name="Page-1" id="5tE9PvvC92MBVU3yv-TN">
    <mxGraphModel dx="2249" dy="802" grid="1" gridSize="10" guides="1" tooltips="1" connect="1" arrows="1" fold="1" page="1" pageScale="1" pageWidth="827" pageHeight="1169" math="0" shadow="0">
      <root>
        <mxCell id="0" />
        <mxCell id="1" parent="0" />
        <mxCell id="wkb4X_CLZkG0QTCTbJi_-1" value="&amp;lt;FeedLoader&amp;gt;" style="rounded=0;whiteSpace=wrap;html=1;fillColor=#f8cecc;strokeColor=#b85450;" vertex="1" parent="1">
          <mxGeometry x="340" y="290" width="120" height="60" as="geometry" />
        </mxCell>
        <mxCell id="wkb4X_CLZkG0QTCTbJi_-16" style="edgeStyle=orthogonalEdgeStyle;rounded=0;orthogonalLoop=1;jettySize=auto;html=1;dashed=1;" edge="1" parent="1" source="wkb4X_CLZkG0QTCTbJi_-2" target="wkb4X_CLZkG0QTCTbJi_-4">
          <mxGeometry relative="1" as="geometry" />
        </mxCell>
        <mxCell id="wkb4X_CLZkG0QTCTbJi_-17" style="edgeStyle=orthogonalEdgeStyle;rounded=0;orthogonalLoop=1;jettySize=auto;html=1;dashed=1;" edge="1" parent="1" source="wkb4X_CLZkG0QTCTbJi_-2" target="wkb4X_CLZkG0QTCTbJi_-5">
          <mxGeometry relative="1" as="geometry" />
        </mxCell>
        <mxCell id="wkb4X_CLZkG0QTCTbJi_-2" value="Feed(Assembler/Builder/Factor" style="rounded=0;whiteSpace=wrap;html=1;fillColor=#f8cecc;strokeColor=#b85450;" vertex="1" parent="1">
          <mxGeometry x="290" y="20" width="220" height="70" as="geometry" />
        </mxCell>
        <mxCell id="wkb4X_CLZkG0QTCTbJi_-14" style="edgeStyle=orthogonalEdgeStyle;rounded=0;orthogonalLoop=1;jettySize=auto;html=1;entryX=0.75;entryY=0;entryDx=0;entryDy=0;exitX=0;exitY=0.75;exitDx=0;exitDy=0;" edge="1" parent="1" source="wkb4X_CLZkG0QTCTbJi_-3" target="wkb4X_CLZkG0QTCTbJi_-4">
          <mxGeometry relative="1" as="geometry">
            <Array as="points">
              <mxPoint x="240" y="185" />
            </Array>
          </mxGeometry>
        </mxCell>
        <mxCell id="wkb4X_CLZkG0QTCTbJi_-15" style="edgeStyle=orthogonalEdgeStyle;rounded=0;orthogonalLoop=1;jettySize=auto;html=1;exitX=1;exitY=0.75;exitDx=0;exitDy=0;entryX=0.25;entryY=0;entryDx=0;entryDy=0;" edge="1" parent="1" source="wkb4X_CLZkG0QTCTbJi_-3" target="wkb4X_CLZkG0QTCTbJi_-5">
          <mxGeometry relative="1" as="geometry" />
        </mxCell>
        <mxCell id="wkb4X_CLZkG0QTCTbJi_-18" style="edgeStyle=orthogonalEdgeStyle;rounded=0;orthogonalLoop=1;jettySize=auto;html=1;dashed=1;endArrow=block;endFill=0;" edge="1" parent="1" source="wkb4X_CLZkG0QTCTbJi_-3" target="wkb4X_CLZkG0QTCTbJi_-1">
          <mxGeometry relative="1" as="geometry" />
        </mxCell>
        <mxCell id="wkb4X_CLZkG0QTCTbJi_-3" value="RemoteWithLocalFallbackFeedService" style="rounded=0;whiteSpace=wrap;html=1;fillColor=#f8cecc;strokeColor=#b85450;" vertex="1" parent="1">
          <mxGeometry x="280" y="140" width="240" height="60" as="geometry" />
        </mxCell>
        <mxCell id="wkb4X_CLZkG0QTCTbJi_-12" style="edgeStyle=orthogonalEdgeStyle;rounded=0;orthogonalLoop=1;jettySize=auto;html=1;dashed=1;endArrow=block;endFill=0;" edge="1" parent="1" source="wkb4X_CLZkG0QTCTbJi_-4" target="wkb4X_CLZkG0QTCTbJi_-1">
          <mxGeometry relative="1" as="geometry" />
        </mxCell>
        <mxCell id="wkb4X_CLZkG0QTCTbJi_-22" style="edgeStyle=orthogonalEdgeStyle;rounded=0;orthogonalLoop=1;jettySize=auto;html=1;exitX=0;exitY=0.75;exitDx=0;exitDy=0;entryX=1;entryY=0.5;entryDx=0;entryDy=0;" edge="1" parent="1" source="wkb4X_CLZkG0QTCTbJi_-25" target="wkb4X_CLZkG0QTCTbJi_-19">
          <mxGeometry relative="1" as="geometry" />
        </mxCell>
        <mxCell id="wkb4X_CLZkG0QTCTbJi_-4" value="RemoteFeedLoader" style="rounded=0;whiteSpace=wrap;html=1;fillColor=#dae8fc;strokeColor=#6c8ebf;" vertex="1" parent="1">
          <mxGeometry x="120" y="290" width="160" height="60" as="geometry" />
        </mxCell>
        <mxCell id="wkb4X_CLZkG0QTCTbJi_-13" style="edgeStyle=orthogonalEdgeStyle;rounded=0;orthogonalLoop=1;jettySize=auto;html=1;entryX=1;entryY=0.5;entryDx=0;entryDy=0;dashed=1;endArrow=block;endFill=0;" edge="1" parent="1" source="wkb4X_CLZkG0QTCTbJi_-5" target="wkb4X_CLZkG0QTCTbJi_-1">
          <mxGeometry relative="1" as="geometry" />
        </mxCell>
        <mxCell id="wkb4X_CLZkG0QTCTbJi_-5" value="LocalFeedLoader" style="rounded=0;whiteSpace=wrap;html=1;fillColor=#d5e8d4;strokeColor=#82b366;" vertex="1" parent="1">
          <mxGeometry x="600" y="290" width="120" height="60" as="geometry" />
        </mxCell>
        <mxCell id="wkb4X_CLZkG0QTCTbJi_-6" value="UIViewController" style="rounded=0;whiteSpace=wrap;html=1;fillColor=#ffe6cc;strokeColor=#d79b00;" vertex="1" parent="1">
          <mxGeometry x="340" y="540" width="120" height="60" as="geometry" />
        </mxCell>
        <mxCell id="wkb4X_CLZkG0QTCTbJi_-10" style="edgeStyle=orthogonalEdgeStyle;rounded=0;orthogonalLoop=1;jettySize=auto;html=1;entryX=0.5;entryY=0;entryDx=0;entryDy=0;endArrow=block;endFill=0;" edge="1" parent="1" source="wkb4X_CLZkG0QTCTbJi_-7" target="wkb4X_CLZkG0QTCTbJi_-6">
          <mxGeometry relative="1" as="geometry" />
        </mxCell>
        <mxCell id="wkb4X_CLZkG0QTCTbJi_-11" style="edgeStyle=orthogonalEdgeStyle;rounded=0;orthogonalLoop=1;jettySize=auto;html=1;entryX=0.5;entryY=1;entryDx=0;entryDy=0;" edge="1" parent="1" source="wkb4X_CLZkG0QTCTbJi_-7" target="wkb4X_CLZkG0QTCTbJi_-1">
          <mxGeometry relative="1" as="geometry" />
        </mxCell>
        <mxCell id="wkb4X_CLZkG0QTCTbJi_-7" value="FeedViewController" style="rounded=0;whiteSpace=wrap;html=1;fillColor=#ffe6cc;strokeColor=#d79b00;" vertex="1" parent="1">
          <mxGeometry x="320" y="440" width="160" height="40" as="geometry" />
        </mxCell>
        <mxCell id="wkb4X_CLZkG0QTCTbJi_-19" value="&amp;lt;HTTPClient&amp;gt;" style="rounded=0;whiteSpace=wrap;html=1;fillColor=#dae8fc;strokeColor=#6c8ebf;" vertex="1" parent="1">
          <mxGeometry x="-140" y="430" width="160" height="60" as="geometry" />
        </mxCell>
        <mxCell id="wkb4X_CLZkG0QTCTbJi_-20" value="FeedItemsMapper" style="rounded=0;whiteSpace=wrap;html=1;fillColor=#dae8fc;strokeColor=#6c8ebf;" vertex="1" parent="1">
          <mxGeometry x="-140" y="290" width="160" height="60" as="geometry" />
        </mxCell>
        <mxCell id="wkb4X_CLZkG0QTCTbJi_-26" value="&lt;font color=&quot;#ccccff&quot;&gt;Feed Api module&lt;/font&gt;" style="text;html=1;align=center;verticalAlign=middle;resizable=0;points=[];autosize=1;strokeColor=none;fillColor=none;" vertex="1" parent="1">
          <mxGeometry x="-210" y="248" width="110" height="30" as="geometry" />
        </mxCell>
        <mxCell id="wkb4X_CLZkG0QTCTbJi_-28" style="edgeStyle=orthogonalEdgeStyle;rounded=0;orthogonalLoop=1;jettySize=auto;html=1;exitX=0.5;exitY=0;exitDx=0;exitDy=0;entryX=0.5;entryY=1;entryDx=0;entryDy=0;" edge="1" parent="1" source="wkb4X_CLZkG0QTCTbJi_-27" target="wkb4X_CLZkG0QTCTbJi_-19">
          <mxGeometry relative="1" as="geometry" />
        </mxCell>
        <mxCell id="wkb4X_CLZkG0QTCTbJi_-30" style="edgeStyle=orthogonalEdgeStyle;rounded=0;orthogonalLoop=1;jettySize=auto;html=1;entryX=0.583;entryY=0.033;entryDx=0;entryDy=0;entryPerimeter=0;" edge="1" parent="1" source="wkb4X_CLZkG0QTCTbJi_-27" target="wkb4X_CLZkG0QTCTbJi_-29">
          <mxGeometry relative="1" as="geometry" />
        </mxCell>
        <mxCell id="wkb4X_CLZkG0QTCTbJi_-27" value="URLSession&amp;nbsp;&lt;br&gt;HTTPClient" style="rounded=0;whiteSpace=wrap;html=1;fillColor=#dae8fc;strokeColor=#6c8ebf;" vertex="1" parent="1">
          <mxGeometry x="-140" y="540" width="160" height="60" as="geometry" />
        </mxCell>
        <mxCell id="wkb4X_CLZkG0QTCTbJi_-29" value="" style="html=1;verticalLabelPosition=bottom;align=center;labelBackgroundColor=#ffffff;verticalAlign=top;strokeWidth=2;strokeColor=#0080F0;shadow=0;dashed=0;shape=mxgraph.ios7.icons.cloud;fillColor=#CCCCFF;" vertex="1" parent="1">
          <mxGeometry x="-130" y="670" width="120" height="60" as="geometry" />
        </mxCell>
        <mxCell id="wkb4X_CLZkG0QTCTbJi_-31" value="" style="edgeStyle=orthogonalEdgeStyle;rounded=0;orthogonalLoop=1;jettySize=auto;html=1;entryX=1;entryY=0.5;entryDx=0;entryDy=0;" edge="1" parent="1" source="wkb4X_CLZkG0QTCTbJi_-4" target="wkb4X_CLZkG0QTCTbJi_-25">
          <mxGeometry relative="1" as="geometry">
            <mxPoint x="120" y="320" as="sourcePoint" />
            <mxPoint x="20" y="320" as="targetPoint" />
          </mxGeometry>
        </mxCell>
        <mxCell id="wkb4X_CLZkG0QTCTbJi_-32" value="" style="edgeStyle=orthogonalEdgeStyle;rounded=0;orthogonalLoop=1;jettySize=auto;html=1;exitX=0;exitY=0.75;exitDx=0;exitDy=0;entryX=1;entryY=0.5;entryDx=0;entryDy=0;" edge="1" parent="1" source="wkb4X_CLZkG0QTCTbJi_-4" target="wkb4X_CLZkG0QTCTbJi_-25">
          <mxGeometry relative="1" as="geometry">
            <mxPoint x="120" y="335" as="sourcePoint" />
            <mxPoint x="20" y="460" as="targetPoint" />
          </mxGeometry>
        </mxCell>
        <mxCell id="wkb4X_CLZkG0QTCTbJi_-25" value="" style="rounded=0;whiteSpace=wrap;html=1;fillColor=none;strokeColor=#CCCCFF;" vertex="1" parent="1">
          <mxGeometry x="-210" y="270" width="500" height="360" as="geometry" />
        </mxCell>
      </root>
    </mxGraphModel>
  </diagram>
</mxfile>
